{
  "source": "C:\\Users\\Peter\\Desktop\\stuff\\MIUN\\quantitative_research\\video_compression\\videos\\UVG\\ReadySteadyGo_1920x1080_120fps_420_8bit_YUV.y4m",
  "output": "C:\\Users\\Peter\\Desktop\\stuff\\MIUN\\quantitative_research\\video_compression\\compressed_videos\\UVG\\h264\\2\\ReadySteadyGo_1920x1080_120fps_420_8bit_YUV_h264.mp4",
  "codec": "h264",
  "ok": "[yuv4mpegpipe @ 000002e54c0c6640] Stream #0: not enough frames to estimate rate; consider increasing probesize\nInput #0, yuv4mpegpipe, from 'C:\\Users\\Peter\\Desktop\\stuff\\MIUN\\quantitative_research\\video_compression\\videos\\UVG\\ReadySteadyGo_1920x1080_120fps_420_8bit_YUV.y4m':\n  Duration: 00:00:05.00, start: 0.000000, bitrate: 2985989 kb/s\n  Stream #0:0: Video: rawvideo (I420 / 0x30323449), yuv420p(progressive), 1920x1080, 120 fps, 120 tbr, 120 tbn\n[out#0/mp4 @ 000002e54c0c9a00] Codec AVOption b:a (set bitrate (in bits/s)) has not been used for any stream. The most likely reason is either wrong type (e.g. a video option with no video streams) or that it is a private option of some decoder which was not actually used for any stream.\nStream mapping:\n  Stream #0:0 -> #0:0 (rawvideo (native) -> h264 (libx264))\nPress [q] to stop, [?] for help\n[libx264 @ 000002e54c0ccac0] using cpu capabilities: MMX2 SSE2Fast SSSE3 SSE4.2 AVX FMA3 BMI2 AVX2\n[libx264 @ 000002e54c0ccac0] profile High, level 5.1, 4:2:0, 8-bit\n[libx264 @ 000002e54c0ccac0] 264 - core 165 r3222 b35605a - H.264/MPEG-4 AVC codec - Copyleft 2003-2025 - http://www.videolan.org/x264.html - options: cabac=1 ref=5 deblock=1:0:0 analyse=0x3:0x113 me=hex subme=8 psy=1 psy_rd=1.00:0.00 mixed_ref=1 me_range=16 chroma_me=1 trellis=2 8x8dct=1 cqm=0 deadzone=21,11 fast_pskip=1 chroma_qp_offset=-2 threads=18 lookahead_threads=3 sliced_threads=0 nr=0 decimate=1 interlaced=0 bluray_compat=0 constrained_intra=0 bframes=3 b_pyramid=2 b_adapt=1 b_bias=0 direct=3 weightb=1 open_gop=0 weightp=2 keyint=250 keyint_min=25 scenecut=40 intra_refresh=0 rc_lookahead=50 rc=cbr mbtree=1 bitrate=2000 ratetol=1.0 qcomp=0.60 qpmin=0 qpmax=69 qpstep=4 vbv_maxrate=2000 vbv_bufsize=2000 nal_hrd=none filler=0 ip_ratio=1.40 aq=1:1.00\nOutput #0, mp4, to 'C:\\Users\\Peter\\Desktop\\stuff\\MIUN\\quantitative_research\\video_compression\\compressed_videos\\UVG\\h264\\2\\ReadySteadyGo_1920x1080_120fps_420_8bit_YUV_h264.mp4':\n  Metadata:\n    encoder         : Lavf62.3.100\n  Stream #0:0: Video: h264 (avc1 / 0x31637661), yuv420p(tv, progressive), 1920x1080, q=2-31, 2000 kb/s, 120 fps, 15360 tbn\n    Metadata:\n      encoder         : Lavc62.11.100 libx264\n    Side data:\n      cpb: bitrate max/min/avg: 2000000/0/2000000 buffer size: 2000000 vbv_delay: N/A\nframe=    0 fps=0.0 q=0.0 size=       0KiB time=N/A bitrate=N/A speed=N/A elapsed=0:00:00.52    \nframe=    0 fps=0.0 q=0.0 size=       0KiB time=N/A bitrate=N/A speed=N/A elapsed=0:00:01.03    \nframe=   24 fps= 16 q=47.0 size=       0KiB time=00:00:00.18 bitrate=   2.1kbits/s speed=0.119x elapsed=0:00:01.54    \nframe=   52 fps= 25 q=46.0 size=       0KiB time=00:00:00.41 bitrate=   0.9kbits/s speed=0.201x elapsed=0:00:02.06    \nframe=   80 fps= 31 q=46.0 size=       0KiB time=00:00:00.65 bitrate=   0.6kbits/s speed=0.252x elapsed=0:00:02.57    \nframe=  108 fps= 35 q=47.0 size=       0KiB time=00:00:00.88 bitrate=   0.4kbits/s speed=0.286x elapsed=0:00:03.09    \nframe=  132 fps= 37 q=47.0 size=       0KiB time=00:00:01.08 bitrate=   0.4kbits/s speed= 0.3x elapsed=0:00:03.60    \nframe=  157 fps= 38 q=48.0 size=     256KiB time=00:00:01.29 bitrate=1623.9kbits/s speed=0.313x elapsed=0:00:04.12    \nframe=  181 fps= 39 q=48.0 size=     256KiB time=00:00:01.49 bitrate=1406.2kbits/s speed=0.321x elapsed=0:00:04.64    \nframe=  205 fps= 40 q=49.0 size=     256KiB time=00:00:01.69 bitrate=1239.9kbits/s speed=0.328x elapsed=0:00:05.15    \nframe=  233 fps= 41 q=51.0 size=     512KiB time=00:00:01.90 bitrate=2198.1kbits/s speed=0.336x elapsed=0:00:05.67    \nframe=  252 fps= 41 q=52.0 size=     512KiB time=00:00:02.08 bitrate=2013.5kbits/s speed=0.336x elapsed=0:00:06.20    \nframe=  279 fps= 41 q=53.0 size=     512KiB time=00:00:02.30 bitrate=1817.2kbits/s speed=0.343x elapsed=0:00:06.72    \nframe=  302 fps= 42 q=54.0 size=     512KiB time=00:00:02.50 bitrate=1677.9kbits/s speed=0.345x elapsed=0:00:07.24    \nframe=  329 fps= 42 q=55.0 size=     512KiB time=00:00:02.72 bitrate=1539.3kbits/s speed=0.352x elapsed=0:00:07.74    \nframe=  355 fps= 43 q=55.0 size=     768KiB time=00:00:02.94 bitrate=2138.9kbits/s speed=0.356x elapsed=0:00:08.26    \nframe=  379 fps= 43 q=55.0 size=     768KiB time=00:00:03.14 bitrate=2002.7kbits/s speed=0.357x elapsed=0:00:08.79    \nframe=  402 fps= 43 q=56.0 size=     768KiB time=00:00:03.33 bitrate=1887.6kbits/s speed=0.358x elapsed=0:00:09.32    \nframe=  427 fps= 43 q=55.0 size=     768KiB time=00:00:03.54 bitrate=1776.5kbits/s speed=0.36x elapsed=0:00:09.83    \nframe=  452 fps= 44 q=54.0 size=     768KiB time=00:00:03.75 bitrate=1677.8kbits/s speed=0.362x elapsed=0:00:10.34    \nframe=  481 fps= 44 q=53.0 size=    1024KiB time=00:00:03.99 bitrate=2101.6kbits/s speed=0.367x elapsed=0:00:10.86    \nframe=  506 fps= 44 q=53.0 size=    1024KiB time=00:00:04.20 bitrate=1997.4kbits/s speed=0.369x elapsed=0:00:11.37    \nframe=  546 fps= 46 q=53.0 size=    1024KiB time=00:00:04.53 bitrate=1850.5kbits/s speed=0.381x elapsed=0:00:11.88    \n[mp4 @ 000002e54c0c9b40] Starting second pass: moving the moov atom to the beginning of the file\n[out#0/mp4 @ 000002e54c0c9a00] video:1262KiB audio:0KiB subtitle:0KiB other streams:0KiB global headers:0KiB muxing overhead: 0.604434%\nframe=  600 fps= 48 q=-1.0 Lsize=    1270KiB time=00:00:04.98 bitrate=2087.1kbits/s speed=0.402x elapsed=0:00:12.38    \n[libx264 @ 000002e54c0ccac0] frame I:3     Avg QP:45.47  size: 17204\n[libx264 @ 000002e54c0ccac0] frame P:188   Avg QP:48.36  size:  3681\n[libx264 @ 000002e54c0ccac0] frame B:409   Avg QP:48.75  size:  1339\n[libx264 @ 000002e54c0ccac0] consecutive B-frames:  1.7% 16.7% 17.0% 64.7%\n[libx264 @ 000002e54c0ccac0] mb I  I16..4: 34.4% 64.6%  1.0%\n[libx264 @ 000002e54c0ccac0] mb P  I16..4:  4.8%  2.0%  0.0%  P16..4: 15.6%  0.7%  1.2%  0.0%  0.0%    skip:75.7%\n[libx264 @ 000002e54c0ccac0] mb B  I16..4:  0.0%  0.0%  0.0%  B16..8: 15.4%  0.2%  0.0%  direct: 0.1%  skip:84.3%  L0:33.3% L1:66.6% BI: 0.1%\n[libx264 @ 000002e54c0ccac0] 8x8 transform intra:36.4% inter:97.3%\n[libx264 @ 000002e54c0ccac0] direct mvs  spatial:92.4% temporal:7.6%\n[libx264 @ 000002e54c0ccac0] coded y,uvDC,uvAC intra: 5.6% 25.5% 1.2% inter: 0.2% 1.3% 0.0%\n[libx264 @ 000002e54c0ccac0] i16 v,h,dc,p: 50% 33%  5% 12%\n[libx264 @ 000002e54c0ccac0] i8 v,h,dc,ddl,ddr,vr,hd,vl,hu: 18%  7% 45%  4%  6%  6%  6%  4%  4%\n[libx264 @ 000002e54c0ccac0] i4 v,h,dc,ddl,ddr,vr,hd,vl,hu: 31% 16% 13%  6%  7% 10%  6%  5%  7%\n[libx264 @ 000002e54c0ccac0] i8c dc,h,v,p: 87%  8%  5%  1%\n[libx264 @ 000002e54c0ccac0] Weighted P-Frames: Y:0.0% UV:0.0%\n[libx264 @ 000002e54c0ccac0] ref P L0: 63.7%  2.7% 19.7%  6.4%  7.3%  0.2%\n[libx264 @ 000002e54c0ccac0] ref B L0: 86.0%  8.9%  4.1%  1.0%\n[libx264 @ 000002e54c0ccac0] ref B L1: 96.8%  3.2%\n[libx264 @ 000002e54c0ccac0] kb/s:2066.43\n",
  "seconds": 12.535971641540527,
  "probe_out": {}
}